<?xml version="1.0" encoding="utf-8"?>
<!-- Generator: Adobe Illustrator 16.0.2, SVG Export Plug-In . SVG Version: 6.00 Build 0)  -->
<!DOCTYPE svg PUBLIC "-//W3C//DTD SVG 1.1//EN" "http://www.w3.org/Graphics/SVG/1.1/DTD/svg11.dtd">
<svg version="1.1" id="圖層_1" focusable="false" xmlns="http://www.w3.org/2000/svg" xmlns:xlink="http://www.w3.org/1999/xlink"
	 x="0px" y="0px" width="612px" height="612px" viewBox="0 90 612 612" enable-background="new 0 90 612 612" xml:space="preserve">
<path fill="#5E2869" d="M549.09,308.348c0.389,5.436,0.389,10.873,0.389,16.31c0,165.814-126.204,356.87-356.87,356.87
	c-71.063,0-137.078-20.582-192.607-56.306c10.097,1.164,19.804,1.553,30.289,1.553c58.636,0,112.613-19.805,155.718-53.589
	c-55.142-1.165-101.354-37.279-117.274-86.985c7.769,1.164,15.533,1.941,23.688,1.941c11.262,0,22.522-1.554,33.008-4.271
	c-57.472-11.65-100.577-62.133-100.577-123.1v-1.554c16.697,9.319,36.115,15.146,56.694,15.921
	C47.763,352.616,25.63,314.171,25.63,270.679c0-23.3,6.212-44.657,17.085-63.298c61.744,76.111,154.555,125.816,258.624,131.254
	c-1.941-9.319-3.106-19.026-3.106-28.734c0-69.123,55.919-125.429,125.429-125.429c36.114,0,68.732,15.145,91.646,39.607
	c28.347-5.436,55.529-15.921,79.605-30.289c-9.32,29.125-29.125,53.59-55.142,69.121c25.241-2.717,49.705-9.708,72.228-19.415
	C594.913,268.35,573.555,290.484,549.09,308.348L549.09,308.348z"/>
</svg>
