<?xml version="1.0" encoding="utf-8"?>
<!-- Generator: Adobe Illustrator 16.0.2, SVG Export Plug-In . SVG Version: 6.00 Build 0)  -->
<!DOCTYPE svg PUBLIC "-//W3C//DTD SVG 1.1//EN" "http://www.w3.org/Graphics/SVG/1.1/DTD/svg11.dtd">
<svg version="1.1" id="圖層_1" focusable="false" xmlns="http://www.w3.org/2000/svg" xmlns:xlink="http://www.w3.org/1999/xlink"
	 x="0px" y="0px" width="612px" height="612px" viewBox="0 90 612 612" enable-background="new 0 90 612 612" xml:space="preserve">
<path fill="#5E2869" d="M143.271,667.5H23.539V281.933h119.732V667.5z M83.34,229.337C45.054,229.337,14,197.626,14,159.339
	C14,121.044,45.045,90,83.34,90c38.296,0,69.341,31.044,69.341,69.339C152.68,197.626,121.613,229.337,83.34,229.337z
	 M591.385,667.5H471.911V479.808c0-44.73-0.904-102.096-62.252-102.096c-62.25,0-71.789,48.6-71.789,98.873V667.5H218.27V281.933
	h114.831v52.594h1.675c15.984-30.294,55.03-62.263,113.286-62.263c121.175,0,143.451,79.794,143.451,183.439V667.5H591.385z"/>
</svg>
