<?xml version="1.0" encoding="utf-8"?>
<!-- Generator: Adobe Illustrator 16.0.2, SVG Export Plug-In . SVG Version: 6.00 Build 0)  -->
<!DOCTYPE svg PUBLIC "-//W3C//DTD SVG 1.1//EN" "http://www.w3.org/Graphics/SVG/1.1/DTD/svg11.dtd">
<svg version="1.1" id="圖層_1" focusable="false" xmlns="http://www.w3.org/2000/svg" xmlns:xlink="http://www.w3.org/1999/xlink"
	 x="0px" y="0px" width="612px" height="612px" viewBox="0 90 612 612" enable-background="new 0 90 612 612" xml:space="preserve">
<path fill="#FFFFFF" d="M204.699,585.76c0,2.468-2.839,4.441-6.416,4.441c-4.072,0.37-6.91-1.604-6.91-4.441
	c0-2.468,2.838-4.441,6.416-4.441C201.491,580.948,204.699,582.923,204.699,585.76z M166.325,580.208
	c-0.863,2.468,1.604,5.306,5.306,6.046c3.208,1.233,6.91,0,7.649-2.468c0.74-2.468-1.604-5.306-5.306-6.417
	C170.768,576.507,167.19,577.739,166.325,580.208L166.325,580.208z M220.863,578.11c-3.577,0.863-6.046,3.208-5.676,6.046
	c0.37,2.469,3.578,4.071,7.28,3.208c3.578-0.863,6.046-3.208,5.676-5.676C227.773,579.344,224.441,577.739,220.863,578.11z
	 M302.051,105.29C130.913,105.29,0,235.218,0,406.354c0,136.837,86.124,253.932,209.141,295.143
	c15.794,2.839,21.347-6.909,21.347-14.93c0-7.649-0.37-49.849-0.37-75.76c0,0-86.37,18.508-104.51-36.771
	c0,0-14.064-35.904-34.301-45.158c0,0-28.256-19.372,1.974-19.002c0,0,30.725,2.468,47.629,31.834
	c27.021,47.627,72.305,33.932,89.948,25.788c2.838-19.742,10.857-33.438,19.741-41.582
	c-68.973-7.649-138.563-17.646-138.563-136.344c0-33.932,9.378-50.959,29.118-72.675c-3.208-8.021-13.694-41.088,3.208-83.78
	c25.788-8.02,85.139,33.314,85.139,33.314c24.677-6.909,51.205-10.487,77.485-10.487c26.281,0,52.811,3.578,77.487,10.487
	c0,0,59.35-41.458,85.137-33.314c16.904,42.815,6.417,75.76,3.209,83.78c19.741,21.839,31.833,38.866,31.833,72.675
	c0,119.068-72.675,128.569-141.647,136.344c11.353,9.748,20.977,28.256,20.977,57.252c0,41.581-0.37,93.032-0.37,103.15
	c0,8.021,5.676,17.769,21.346,14.931C528.343,660.286,612,543.191,612,406.354C612,235.218,473.19,105.29,302.051,105.29z
	 M119.932,530.852c-1.604,1.234-1.232,4.072,0.864,6.416c1.974,1.975,4.812,2.838,6.416,1.234c1.604-1.234,1.232-4.072-0.864-6.416
	C124.374,530.112,121.536,529.249,119.932,530.852z M106.607,520.858c-0.863,1.604,0.37,3.578,2.838,4.813
	c1.975,1.233,4.441,0.863,5.307-0.863c0.862-1.604-0.37-3.578-2.838-4.813C109.445,519.255,107.47,519.625,106.607,520.858z
	 M146.584,564.784c-1.976,1.604-1.234,5.307,1.604,7.65c2.838,2.838,6.416,3.208,8.021,1.233c1.604-1.604,0.862-5.307-1.604-7.65
	C151.89,563.179,148.188,562.809,146.584,564.784z M132.518,546.646c-1.975,1.233-1.975,4.441,0,7.279s5.307,4.071,6.909,2.838
	c1.975-1.604,1.975-4.813,0-7.649C137.7,546.276,134.491,545.043,132.518,546.646L132.518,546.646z"/>
</svg>
